# Blender v2.92.0 OBJ File: ''
# www.blender.org
o SpaceShip
v 1.200000 -0.200000 -1.000000
v 0.000000 -0.700000 -3.000000
v 0.300000 -0.000001 -5.000000
v 1.000000 1.000000 1.000000
v 1.200000 0.200000 -1.000000
v 1.000000 1.000000 -1.000000
v 1.000000 -1.000000 1.000000
v -0.600000 -0.600000 1.400000
v -1.000000 -1.000000 1.000000
v 1.000000 -1.000000 -1.000000
v -1.000000 -1.000000 -1.000000
v -1.000000 1.000000 -1.000000
v -0.300000 -0.000001 -5.000000
v -1.200000 -0.200000 -1.000000
v -1.200000 0.200000 -1.000000
v 1.200000 0.200000 1.000000
v 0.600000 0.600000 1.400000
v 0.720000 0.120000 1.400000
v 1.200000 -0.200000 1.000000
v -4.200000 0.060000 1.000000
v -1.200000 0.200000 1.000000
v -1.200000 -0.200000 1.000000
v -0.720000 -0.120000 1.400000
v -1.000000 1.000000 1.000000
v 4.200000 -0.060000 -1.000000
v 4.200000 0.060000 1.000000
v 4.200000 -0.180000 1.000000
v 4.200000 0.180000 1.000000
v 4.200000 -0.060000 1.000000
v 4.200000 0.060000 -1.000000
v -4.200000 0.060000 -1.000000
v -4.200000 0.180000 1.000000
v -4.200000 -0.060000 -1.000000
v -4.200000 -0.060000 1.000000
v -4.200000 -0.180000 -1.000000
v -4.350000 0.180000 -3.000000
v -4.200000 0.180000 -1.000000
v -4.200000 -0.180000 1.000000
v -4.500000 0.180000 1.000000
v -4.500000 -0.180000 -1.000000
v -4.500000 -0.180000 1.000000
v 4.500000 0.180000 -1.000000
v 4.200000 0.180000 -1.000000
v 4.200000 -0.180000 -1.000000
v 4.500000 -0.180000 1.000000
v 4.500000 -0.180000 -1.000000
v 4.350000 0.180000 -3.000000
v 4.500000 0.180000 1.000000
v -4.350000 -0.180000 -3.000000
v -4.500000 0.180000 -1.000000
v 4.350000 -0.180000 -3.000000
v -0.720000 0.120000 1.400000
v 0.600000 -0.600000 1.400000
v -0.600000 0.600000 1.400000
v 0.720000 -0.120000 1.400000
vn 0.6149 -0.7686 -0.1768
vn 0.9701 0.2425 -0.0000
vn 0.0000 -0.7071 0.7071
vn 0.0000 -1.0000 0.0000
vn 0.0000 1.0000 -0.0000
vn 0.0000 0.9701 -0.2425
vn -0.9756 0.0000 -0.2195
vn -0.9454 0.2363 -0.2245
vn -0.8602 -0.2151 -0.4624
vn 0.0000 -0.9889 -0.1483
vn 0.6172 0.1543 0.7715
vn 0.9701 -0.2425 0.0000
vn -0.0466 0.9989 -0.0000
vn -0.6172 -0.1543 0.7715
vn -0.9701 0.2425 -0.0000
vn -0.9701 -0.2425 0.0000
vn 0.0000 -0.0000 -1.0000
vn 0.9756 0.0000 -0.2195
vn 0.0000 -0.9439 -0.3304
vn 0.9454 0.2363 -0.2245
vn 0.0000 0.0000 1.0000
vn 0.0466 -0.9989 0.0000
vn 0.0466 0.9989 -0.0000
vn 1.0000 0.0000 0.0000
vn -0.0466 -0.9989 0.0000
vn 0.9972 0.0000 -0.0748
vn -1.0000 0.0000 0.0000
vn -0.9972 0.0000 -0.0748
vn -0.6402 0.0000 0.7682
vn 0.6172 -0.1543 0.7715
vn -0.6172 0.1543 0.7715
vn 0.0000 0.7071 0.7071
vn 0.6402 0.0000 0.7682
vn 0.8602 -0.2151 -0.4624
vn -0.6149 -0.7686 -0.1768
s off
f 1//1 2//1 3//1
f 4//2 5//2 6//2
f 7//3 8//3 9//3
f 10//4 9//4 11//4
f 12//5 4//5 6//5
f 12//6 3//6 13//6
f 14//7 15//7 13//7
f 15//8 12//8 13//8
f 14//9 2//9 11//9
f 10//10 11//10 2//10
f 16//11 17//11 18//11
f 10//12 19//12 7//12
f 15//13 20//13 21//13
f 22//14 8//14 23//14
f 12//15 21//15 24//15
f 9//16 14//16 11//16
f 5//17 25//17 1//17
f 5//18 1//18 3//18
f 3//19 2//19 13//19
f 6//20 5//20 3//20
f 26//21 27//21 28//21
f 19//21 26//21 16//21
f 1//22 29//22 19//22
f 16//23 30//23 5//23
f 31//24 32//24 20//24
f 22//25 33//25 14//25
f 14//17 31//17 15//17
f 21//21 34//21 22//21
f 35//26 36//26 37//26
f 34//24 35//24 33//24
f 31//21 35//21 37//21
f 34//21 32//21 38//21
f 39//27 40//27 41//27
f 32//21 41//21 38//21
f 37//5 39//5 32//5
f 38//4 40//4 35//4
f 28//5 42//5 43//5
f 25//27 27//27 29//27
f 26//27 43//27 30//27
f 25//21 43//21 44//21
f 42//24 45//24 46//24
f 43//5 42//5 47//5
f 27//21 48//21 28//21
f 44//4 45//4 27//4
f 42//24 48//24 45//24
f 35//4 40//4 49//4
f 50//5 37//5 36//5
f 50//28 49//28 40//28
f 46//26 51//26 47//26
f 43//28 51//28 44//28
f 46//4 44//4 51//4
f 46//26 47//26 42//26
f 22//25 34//25 33//25
f 14//17 33//17 31//17
f 12//5 24//5 4//5
f 22//29 52//29 21//29
f 19//30 53//30 7//30
f 21//31 54//31 24//31
f 24//32 17//32 4//32
f 16//33 55//33 19//33
f 55//21 18//21 23//21
f 21//21 20//21 34//21
f 19//21 29//21 26//21
f 16//23 26//23 30//23
f 5//17 30//17 25//17
f 1//22 25//22 29//22
f 10//12 1//12 19//12
f 10//4 7//4 9//4
f 1//34 10//34 2//34
f 9//16 22//16 14//16
f 14//35 13//35 2//35
f 12//15 15//15 21//15
f 15//13 31//13 20//13
f 12//6 6//6 3//6
f 28//5 48//5 42//5
f 4//2 16//2 5//2
f 43//28 47//28 51//28
f 44//4 46//4 45//4
f 27//21 45//21 48//21
f 24//32 54//32 17//32
f 21//31 52//31 54//31
f 22//29 23//29 52//29
f 22//14 9//14 8//14
f 7//3 53//3 8//3
f 19//30 55//30 53//30
f 16//33 18//33 55//33
f 16//11 4//11 17//11
f 18//21 17//21 54//21
f 54//21 52//21 18//21
f 52//21 23//21 18//21
f 23//21 8//21 53//21
f 53//21 55//21 23//21
f 32//21 39//21 41//21
f 39//27 50//27 40//27
f 50//28 36//28 49//28
f 37//5 50//5 39//5
f 38//4 41//4 40//4
f 25//27 44//27 27//27
f 26//27 28//27 43//27
f 31//24 37//24 32//24
f 34//24 38//24 35//24
f 35//26 49//26 36//26
f 26//27 29//27 27//27
f 31//24 33//24 35//24
f 34//24 20//24 32//24
f 25//27 30//27 43//27
