# Blender v2.93.1 OBJ File: ''
# www.blender.org
o Cube_Cube.003
v -38.287205 -3.248567 36.656303
v -38.287205 -1.248567 36.656303
v -38.287205 -3.248567 -7.745614
v -38.287205 -1.248567 -7.745614
v 40.731232 -3.248567 36.656303
v 40.731232 -1.248567 36.656303
v 40.731232 -3.248567 -7.745614
v 40.731232 -1.248567 -7.745614
v 17.730211 -10.546515 -5.453904
v 17.420643 -1.046084 1.593215
v 21.654020 -10.546515 -5.067444
v 20.273249 -1.046084 1.874171
v 25.427042 -10.546515 -3.922911
v 22.718555 -1.046084 2.615947
v 28.904276 -10.546515 -2.064287
v 24.972164 -1.046084 3.820525
v 31.952097 -10.546515 0.436999
v 26.947472 -1.046084 5.441620
v 34.453377 -10.546515 3.484818
v 28.568563 -1.046084 7.416930
v 36.312004 -10.546515 6.962054
v 29.773148 -1.046084 9.670542
v 37.456535 -10.546515 10.735071
v 30.514921 -1.046084 12.115841
v 37.842995 -10.546515 14.658881
v 30.765387 -1.046084 14.658881
v 37.456535 -10.546515 18.582691
v 30.514921 -1.046084 17.201921
v 36.312004 -10.546515 22.355709
v 29.773146 -1.046084 19.647228
v 34.453384 -10.546515 25.832947
v 28.568571 -1.046084 21.900835
v 31.952097 -10.546515 28.880764
v 26.947475 -1.046084 23.876137
v 28.904276 -10.546515 31.382050
v 24.972160 -1.046084 25.497238
v 25.427042 -10.546515 33.240677
v 22.718557 -1.046084 26.701818
v 21.654020 -10.546515 34.385204
v 20.273251 -1.046084 27.443590
v 17.730211 -10.546515 34.771667
v 17.420639 -1.046084 27.724548
v -19.521980 -10.546515 34.385204
v -18.441473 -1.046084 27.352507
v -23.295002 -10.546515 33.240677
v -20.586519 -1.046084 26.701818
v -26.772238 -10.546515 31.382050
v -22.840128 -1.046084 25.497236
v -29.820059 -10.546515 28.880772
v -24.815439 -1.046084 23.876144
v -32.321342 -10.546515 25.832954
v -26.436527 -1.046084 21.900845
v -34.179962 -10.546515 22.355717
v -27.641106 -1.046084 19.647236
v -35.324497 -10.546515 18.582691
v -28.382885 -1.046084 17.201916
v -35.710960 -10.546515 14.658881
v -28.633352 -1.046084 14.658881
v -35.324497 -10.546515 10.735071
v -28.382885 -1.046084 12.115845
v -34.179962 -10.546515 6.962044
v -27.641106 -1.046084 9.670527
v -32.321346 -10.546515 3.484818
v -26.436531 -1.046084 7.416927
v -29.820063 -10.546515 0.436999
v -24.815439 -1.046084 5.441624
v -26.772238 -10.546515 -2.064287
v -22.840128 -1.046084 3.820527
v -23.295002 -10.546515 -3.922911
v -20.586517 -1.046084 2.615946
v -19.521980 -10.546515 -5.067444
v -18.441469 -1.046084 1.965253
v 21.654020 -1.046084 -5.067444
v 17.730211 -1.046084 -5.453904
v 25.427042 -1.046084 -3.922911
v 28.904276 -1.046084 -2.064287
v 31.952097 -1.046084 0.436999
v 34.453377 -1.046084 3.484818
v 36.312004 -1.046084 6.962054
v 37.456535 -1.046084 10.735071
v 37.842995 -1.046084 14.658881
v 37.456535 -1.046084 18.582691
v 36.312004 -1.046084 22.355709
v 34.453384 -1.046084 25.832947
v 31.952097 -1.046084 28.880764
v 28.904276 -1.046084 31.382050
v 25.427042 -1.046084 33.240677
v 21.654020 -1.046084 34.385204
v 17.730211 -1.046084 34.771667
v -19.521980 -1.046084 34.385204
v -23.295002 -1.046084 33.240677
v -26.772238 -1.046084 31.382050
v -29.820059 -1.046084 28.880772
v -32.321342 -1.046084 25.832954
v -34.179962 -1.046084 22.355717
v -35.324497 -1.046084 18.582691
v -35.710960 -1.046084 14.658881
v -35.324497 -1.046084 10.735071
v -34.179962 -1.046084 6.962044
v -32.321346 -1.046084 3.484818
v -29.820063 -1.046084 0.436999
v -26.772238 -1.046084 -2.064287
v -23.295002 -1.046084 -3.922911
v -19.521980 -1.046084 -5.067444
v 20.273249 -1.732548 1.874171
v 17.420643 -1.732548 1.593215
v 22.718555 -1.732548 2.615947
v 24.972164 -1.732548 3.820525
v 26.947472 -1.732548 5.441620
v 28.568563 -1.732548 7.416930
v 29.773148 -1.732548 9.670542
v 30.514921 -1.732548 12.115841
v 30.765387 -1.732548 14.658881
v 30.514921 -1.732548 17.201921
v 29.773146 -1.732548 19.647228
v 28.568571 -1.732548 21.900835
v 26.947475 -1.732548 23.876137
v 24.972160 -1.732548 25.497238
v 22.718557 -1.732548 26.701818
v 20.273251 -1.732548 27.443590
v 17.420639 -1.732548 27.724548
v -18.441473 -1.732548 27.352507
v -20.586519 -1.732548 26.701818
v -22.840128 -1.732548 25.497236
v -24.815439 -1.732548 23.876144
v -26.436527 -1.732548 21.900845
v -27.641106 -1.732548 19.647236
v -28.382885 -1.732548 17.201916
v -28.633352 -1.732548 14.658881
v -28.382885 -1.732548 12.115845
v -27.641106 -1.732548 9.670527
v -26.436531 -1.732548 7.416927
v -24.815439 -1.732548 5.441624
v -22.840128 -1.732548 3.820527
v -20.586517 -1.732548 2.615946
v -18.441469 -1.732548 1.965253
v 13.061466 -1.046084 5.528347
v -14.000646 -1.046084 5.900385
v 13.061466 -1.732548 5.528347
v -14.000646 -1.732548 5.900385
v -2.860937 -1.771304 14.771867
v -2.860937 3.980453 14.771867
v -2.860937 -1.771304 10.623632
v -2.860937 3.980453 10.623632
v 2.860937 -2.558123 15.558686
v 2.860937 4.767272 15.558686
v 2.860937 -2.558123 9.836813
v 2.860937 4.767272 9.836813
v -2.860937 -2.558123 9.836813
v -2.860937 -2.558123 15.558686
v -2.860937 4.767272 15.558686
v -2.860937 4.767272 9.836813
v -8.603573 -1.771304 10.623632
v -8.603573 -1.771304 14.771867
v -8.603573 3.980453 14.771867
v -8.603573 3.980453 10.623632
v -3.179869 4.929357 15.877618
v -3.179869 4.929357 9.517881
v 3.179869 4.929357 9.517881
v 3.179869 4.929357 15.877618
v -2.487319 4.121624 15.041752
v -2.487319 4.121624 10.353746
v -8.977191 4.121624 15.041752
v -8.977191 4.121624 10.353746
v 0.000000 8.069436 12.697750
v 0.000000 8.069436 12.697750
v 0.000000 8.069436 12.697750
v 0.000000 8.069436 12.697750
v -5.732255 6.343291 12.697748
v -5.732255 6.343291 12.697748
v -5.732255 6.343291 12.697748
v -5.732255 6.343291 12.697748
vt 0.625000 0.000000
vt 0.375000 0.250000
vt 0.375000 0.000000
vt 0.625000 0.250000
vt 0.375000 0.500000
vt 0.625000 0.500000
vt 0.375000 0.750000
vt 0.625000 0.750000
vt 0.375000 1.000000
vt 0.125000 0.750000
vt 0.125000 0.500000
vt 0.443588 0.625000
vt 0.443588 0.625000
vt 0.443588 0.625000
vt 0.034435 0.505000
vt 0.034435 0.505000
vt 0.034435 0.505000
vt 0.034435 0.505000
vt 0.034435 0.505000
vt 0.034435 0.505000
vt 0.034435 0.505000
vt 0.034435 0.505000
vt 0.034435 0.505000
vt 0.034435 0.505000
vt 0.034435 0.505000
vt 0.034435 0.505000
vt 0.034435 0.505000
vt 0.034435 0.505000
vt 0.034435 0.505000
vt 0.034435 0.505000
vt 0.034435 0.505000
vt 0.034435 0.505000
vt 0.034435 0.505000
vt 0.034435 0.505000
vt 0.034435 0.505000
vt 0.034435 0.505000
vt 0.034435 0.505000
vt 0.034435 0.505000
vt 0.034435 0.505000
vt 0.034435 0.505000
vt 0.034435 0.505000
vt 0.034435 0.505000
vt 0.034435 0.505000
vt 0.034435 0.505000
vt 0.034435 0.505000
vt 0.034435 0.505000
vt 0.034435 0.505000
vt 0.034435 0.505000
vt 0.034435 0.505000
vt 0.034435 0.505000
vt 0.034435 0.505000
vt 0.034435 0.505000
vt 0.034435 0.505000
vt 0.034435 0.505000
vt 0.034435 0.505000
vt 0.034435 0.505000
vt 0.034435 0.505000
vt 0.034435 0.505000
vt 0.034435 0.505000
vt 0.034435 0.505000
vt 0.034435 0.505000
vt 0.034435 0.505000
vt 0.034435 0.505000
vt 0.034435 0.505000
vt 0.034435 0.505000
vt 0.034435 0.505000
vt 0.034435 0.505000
vt 0.034435 0.505000
vt 0.034435 0.505000
vt 0.034435 0.505000
vt 0.034435 0.505000
vt 0.034435 0.505000
vt 0.034435 0.505000
vt 0.034435 0.505000
vt 0.034435 0.505000
vt 0.034435 0.505000
vt 0.034434 0.505000
vt 0.034434 0.505000
vt 0.034435 0.505000
vt 0.034435 0.505000
vt 0.034435 0.505000
vt 0.034435 0.505000
vt 0.034435 0.505000
vt 0.034435 0.505000
vt 0.034434 0.505000
vt 0.034435 0.505000
vt 0.034435 0.505000
vt 0.034434 0.505000
vt 0.034435 0.505000
vt 0.034434 0.505000
vt 0.034434 0.505000
vt 0.034434 0.505000
vt 0.034435 0.505000
vt 0.034434 0.505000
vt 0.034435 0.505000
vt 0.034435 0.505000
vt 0.034434 0.505000
vt 0.034435 0.505000
vt 0.034434 0.505000
vt 0.034434 0.505000
vt 0.034434 0.505000
vt 0.034435 0.505000
vt 0.034434 0.505000
vt 0.034435 0.505000
vt 0.034434 0.505000
vt 0.034435 0.505000
vt 0.034434 0.505000
vt 0.034434 0.505000
vt 0.034434 0.505000
vt 0.034435 0.505000
vt 0.034434 0.505000
vt 0.034435 0.505000
vt 0.034435 0.505000
vt 0.034435 0.505000
vt 0.034435 0.505000
vt 0.034434 0.505000
vt 0.034434 0.505000
vt 0.034434 0.505000
vt 0.034434 0.505000
vt 0.034435 0.505000
vt 0.034434 0.505000
vt 0.034435 0.505000
vt 0.034434 0.505000
vt 0.034435 0.505000
vt 0.034434 0.505000
vt 0.034434 0.505000
vt 0.034435 0.505000
vt 0.034435 0.505000
vt 0.034435 0.505000
vt 0.034434 0.505000
vt 0.034435 0.505000
vt 0.034434 0.505000
vt 0.034434 0.505000
vt 0.034434 0.505000
vt 0.034434 0.505000
vt 0.034435 0.505000
vt 0.034435 0.505000
vt 0.034434 0.505000
vt 0.034434 0.505000
vt 0.034435 0.505000
vt 0.034435 0.505000
vt 0.034434 0.505000
vt 0.034435 0.505000
vt 0.034435 0.505000
vt 0.034435 0.505000
vt 0.034435 0.505000
vt 0.369915 0.500000
vt 0.369915 0.500000
vt 0.369915 0.500000
vt 0.369916 0.500000
vt 0.369916 0.500000
vt 0.369916 0.500000
vt 0.369916 0.500000
vt 0.369916 0.500000
vt 0.369916 0.500000
vt 0.369916 0.500000
vt 0.369916 0.500000
vt 0.369916 0.500000
vt 0.369916 0.500000
vt 0.369916 0.500000
vt 0.369915 0.500000
vt 0.369916 0.500000
vt 0.369916 0.500000
vt 0.369915 0.500000
vt 0.086925 0.500000
vt 0.086925 0.500000
vt 0.086925 0.500000
vt 0.369916 0.500000
vt 0.369916 0.500000
vt 0.369916 0.500000
vt 0.086925 0.500000
vt 0.086925 0.500000
vt 0.086925 0.500000
vt 0.369915 0.500000
vt 0.369915 0.500000
vt 0.369915 0.500000
vt 0.369916 0.500000
vt 0.369916 0.500000
vt 0.369916 0.500000
vt 0.086925 0.500000
vt 0.086925 0.500000
vt 0.086925 0.500000
vt 0.086925 0.500000
vt 0.086925 0.500000
vt 0.369915 0.500000
vt 0.369915 0.500000
vt 0.369915 0.500000
vt 0.086925 0.500000
vt 0.086925 0.500000
vt 0.086925 0.500000
vt 0.086925 0.500000
vt 0.086925 0.500000
vt 0.625000 1.000000
vt 0.443588 0.625000
vt 0.369916 0.500000
vt 0.369915 0.500000
vn -1.0000 0.0000 0.0000
vn 0.0000 0.0000 -1.0000
vn 1.0000 0.0000 0.0000
vn 0.0000 0.0000 1.0000
vn 0.0000 -1.0000 0.0000
vn 0.0000 1.0000 0.0000
vn 0.0980 0.0000 -0.9952
vn 0.2903 0.0000 -0.9569
vn 0.4714 0.0000 -0.8819
vn 0.6344 0.0000 -0.7730
vn 0.7730 0.0000 -0.6344
vn 0.8819 0.0000 -0.4714
vn 0.9569 0.0000 -0.2903
vn 0.9952 0.0000 -0.0980
vn 0.9952 0.0000 0.0980
vn 0.9569 0.0000 0.2903
vn 0.8819 0.0000 0.4714
vn 0.7730 0.0000 0.6344
vn 0.6344 0.0000 0.7730
vn 0.4714 0.0000 0.8819
vn 0.2903 0.0000 0.9569
vn 0.0980 0.0000 0.9952
vn -0.0104 0.0000 0.9999
vn -0.2903 0.0000 0.9569
vn -0.4714 0.0000 0.8819
vn -0.6344 0.0000 0.7730
vn -0.7730 0.0000 0.6344
vn -0.8819 0.0000 0.4714
vn -0.9569 0.0000 0.2903
vn -0.9952 0.0000 0.0980
vn -0.9952 0.0000 -0.0980
vn -0.9569 0.0000 -0.2903
vn -0.8819 0.0000 -0.4714
vn -0.7730 0.0000 -0.6344
vn -0.6344 0.0000 -0.7730
vn -0.4714 0.0000 -0.8819
vn -0.2903 0.0000 -0.9569
vn -0.0104 0.0000 -0.9999
vn -0.0980 0.0000 0.9952
vn -0.0980 0.0000 -0.9952
vn 0.0104 0.0000 -0.9999
vn 0.0137 0.0000 0.9999
vn 0.6701 0.0000 0.7423
vn -0.6632 0.0000 0.7484
vn 0.3535 -0.9355 0.0000
vn 0.0000 -0.8915 -0.4531
vn 0.4531 -0.8915 0.0000
vn -0.4531 -0.8915 0.0000
vn 0.0000 -0.8915 0.4531
vn 0.0000 -0.8861 0.4635
vn 0.0000 -0.8861 -0.4635
vn -0.3535 -0.9354 0.0000
vn 0.7026 0.7115 0.0000
vn 0.5649 0.8251 0.0000
vn -0.3535 -0.9355 0.0000
vn -0.7026 0.7115 0.0000
vn 0.0000 0.7115 0.7026
vn 0.0000 0.7115 -0.7026
vn 0.0000 0.7258 0.6879
vn -0.5649 0.8251 0.0000
vn 0.0000 0.7258 -0.6879
s off
f 2/1/1 3/2/1 1/3/1
f 4/4/2 7/5/2 3/2/2
f 8/6/3 5/7/3 7/5/3
f 6/8/4 1/9/4 5/7/4
f 7/5/5 1/10/5 3/11/5
f 4/12/6 6/13/6 8/14/6
f 74/15/7 11/16/7 9/17/7
f 73/18/8 13/19/8 11/16/8
f 75/20/9 15/21/9 13/19/9
f 76/22/10 17/23/10 15/21/10
f 77/24/11 19/25/11 17/23/11
f 78/26/12 21/27/12 19/25/12
f 79/28/13 23/29/13 21/27/13
f 80/30/14 25/31/14 23/29/14
f 81/32/15 27/33/15 25/31/15
f 82/34/16 29/35/16 27/33/16
f 83/36/17 31/37/17 29/35/17
f 84/38/18 33/39/18 31/37/18
f 85/40/19 35/41/19 33/39/19
f 86/42/20 37/43/20 35/41/20
f 87/44/21 39/45/21 37/43/21
f 88/46/22 41/47/22 39/45/22
f 89/48/23 43/49/23 41/47/23
f 90/50/24 45/51/24 43/49/24
f 91/52/25 47/53/25 45/51/25
f 92/54/26 49/55/26 47/53/26
f 93/56/27 51/57/27 49/55/27
f 94/58/28 53/59/28 51/57/28
f 95/60/29 55/61/29 53/59/29
f 96/62/30 57/63/30 55/61/30
f 97/64/31 59/65/31 57/63/31
f 98/66/32 61/67/32 59/65/32
f 99/68/33 63/69/33 61/67/33
f 100/70/34 65/71/34 63/69/34
f 101/72/35 67/73/35 65/71/35
f 102/74/36 69/75/36 67/73/36
f 62/76/17 132/77/17 64/78/17
f 103/79/37 71/80/37 69/75/37
f 104/81/38 9/17/38 71/80/38
f 47/53/5 55/61/5 71/80/5
f 12/82/6 74/15/6 10/83/6
f 14/84/6 73/18/6 12/82/6
f 14/84/6 76/22/6 75/20/6
f 18/85/6 76/22/6 16/86/6
f 18/85/6 78/26/6 77/24/6
f 22/87/6 78/26/6 20/88/6
f 22/87/6 80/30/6 79/28/6
f 24/89/6 81/32/6 80/30/6
f 28/90/6 81/32/6 26/91/6
f 28/90/6 83/36/6 82/34/6
f 32/92/6 83/36/6 30/93/6
f 32/92/6 85/40/6 84/38/6
f 36/94/6 85/40/6 34/95/6
f 38/96/6 86/42/6 36/94/6
f 38/96/6 88/46/6 87/44/6
f 40/97/6 89/48/6 88/46/6
f 44/98/6 89/48/6 42/99/6
f 44/98/6 91/52/6 90/50/6
f 46/100/6 92/54/6 91/52/6
f 50/101/6 92/54/6 48/102/6
f 52/103/6 93/56/6 50/101/6
f 52/103/6 95/60/6 94/58/6
f 56/104/6 95/60/6 54/105/6
f 58/106/6 96/62/6 56/104/6
f 60/107/6 97/64/6 58/106/6
f 62/76/6 98/66/6 60/107/6
f 62/76/6 100/70/6 99/68/6
f 66/108/6 100/70/6 64/78/6
f 68/109/6 101/72/6 66/108/6
f 68/109/6 103/79/6 102/74/6
f 72/110/6 103/79/6 70/111/6
f 72/110/6 74/15/6 104/81/6
f 119/112/6 115/113/6 107/114/6
f 36/94/36 119/112/36 38/96/36
f 10/83/39 105/115/39 12/82/39
f 64/78/18 133/116/18 66/108/18
f 38/96/37 120/117/37 40/97/37
f 12/82/24 107/114/24 14/84/24
f 66/108/19 134/118/19 68/109/19
f 40/97/40 121/119/40 42/99/40
f 14/84/25 108/120/25 16/86/25
f 68/109/20 135/121/20 70/111/20
f 42/99/41 122/122/41 44/98/41
f 16/86/26 109/123/26 18/85/26
f 70/111/21 136/124/21 72/110/21
f 44/98/8 123/125/8 46/100/8
f 18/85/27 110/126/27 20/88/27
f 72/110/6 137/127/6 10/83/6
f 46/100/9 124/128/9 48/102/9
f 20/88/28 111/129/28 22/87/28
f 48/102/10 125/130/10 50/101/10
f 22/87/29 112/131/29 24/89/29
f 50/101/11 126/132/11 52/103/11
f 24/89/30 113/133/30 26/91/30
f 52/103/12 127/134/12 54/105/12
f 26/91/31 114/135/31 28/90/31
f 54/105/13 128/136/13 56/104/13
f 28/90/32 115/113/32 30/93/32
f 56/104/14 129/137/14 58/106/14
f 30/93/33 116/138/33 32/92/33
f 58/106/15 130/139/15 60/107/15
f 32/92/34 117/140/34 34/95/34
f 60/107/16 131/141/16 62/76/16
f 34/95/35 118/142/35 36/94/35
f 138/143/42 139/144/42 137/127/42
f 136/124/5 139/144/5 140/145/5
f 10/83/43 139/144/43 106/146/43
f 136/124/44 138/143/44 72/110/44
f 144/147/45 161/148/45 142/149/45
f 152/150/2 147/151/2 149/152/2
f 148/153/3 145/154/3 147/151/3
f 146/155/4 150/156/4 145/154/4
f 147/151/5 150/156/5 149/152/5
f 152/150/46 159/157/46 148/153/46
f 143/158/1 150/156/1 141/159/1
f 142/149/1 150/156/1 151/160/1
f 142/149/1 152/150/1 144/147/1
f 144/147/1 149/152/1 143/158/1
f 155/161/1 153/162/1 154/163/1
f 141/159/5 153/162/5 143/158/5
f 143/158/2 156/164/2 144/147/2
f 142/149/4 154/163/4 141/159/4
f 160/165/4 167/166/4 168/167/4
f 148/153/47 160/168/47 146/155/47
f 151/160/48 158/169/48 152/150/48
f 151/160/49 160/168/49 157/170/49
f 161/171/4 170/172/4 169/173/4
f 142/149/50 163/174/50 155/161/50
f 156/164/51 162/175/51 144/147/51
f 156/164/52 163/174/52 164/176/52
f 167/177/4 165/178/4 168/179/4
f 158/180/4 165/181/4 166/182/4
f 157/183/4 168/167/4 165/181/4
f 159/184/4 166/182/4 167/166/4
f 169/185/4 172/186/4 171/187/4
f 163/188/4 169/173/4 171/189/4
f 164/190/4 171/189/4 172/191/4
f 162/192/4 172/191/4 170/172/4
f 2/1/1 4/4/1 3/2/1
f 4/4/2 8/6/2 7/5/2
f 8/6/3 6/8/3 5/7/3
f 6/8/4 2/193/4 1/9/4
f 7/5/5 5/7/5 1/10/5
f 4/12/6 2/194/6 6/13/6
f 74/15/7 73/18/7 11/16/7
f 73/18/8 75/20/8 13/19/8
f 75/20/9 76/22/9 15/21/9
f 76/22/10 77/24/10 17/23/10
f 77/24/11 78/26/11 19/25/11
f 78/26/12 79/28/12 21/27/12
f 79/28/13 80/30/13 23/29/13
f 80/30/14 81/32/14 25/31/14
f 81/32/15 82/34/15 27/33/15
f 82/34/16 83/36/16 29/35/16
f 83/36/17 84/38/17 31/37/17
f 84/38/18 85/40/18 33/39/18
f 85/40/19 86/42/19 35/41/19
f 86/42/20 87/44/20 37/43/20
f 87/44/21 88/46/21 39/45/21
f 88/46/22 89/48/22 41/47/22
f 89/48/23 90/50/23 43/49/23
f 90/50/24 91/52/24 45/51/24
f 91/52/25 92/54/25 47/53/25
f 92/54/26 93/56/26 49/55/26
f 93/56/27 94/58/27 51/57/27
f 94/58/28 95/60/28 53/59/28
f 95/60/29 96/62/29 55/61/29
f 96/62/30 97/64/30 57/63/30
f 97/64/31 98/66/31 59/65/31
f 98/66/32 99/68/32 61/67/32
f 99/68/33 100/70/33 63/69/33
f 100/70/34 101/72/34 65/71/34
f 101/72/35 102/74/35 67/73/35
f 102/74/36 103/79/36 69/75/36
f 62/76/17 131/141/17 132/77/17
f 103/79/37 104/81/37 71/80/37
f 104/81/38 74/15/38 9/17/38
f 71/80/5 9/17/5 41/47/5
f 9/17/5 11/16/5 39/45/5
f 11/16/5 13/19/5 15/21/5
f 15/21/5 17/23/5 23/29/5
f 17/23/5 19/25/5 23/29/5
f 19/25/5 21/27/5 23/29/5
f 23/29/5 25/31/5 27/33/5
f 27/33/5 29/35/5 31/37/5
f 31/37/5 33/39/5 39/45/5
f 33/39/5 35/41/5 39/45/5
f 35/41/5 37/43/5 39/45/5
f 39/45/5 41/47/5 9/17/5
f 41/47/5 43/49/5 71/80/5
f 43/49/5 45/51/5 47/53/5
f 47/53/5 49/55/5 51/57/5
f 51/57/5 53/59/5 47/53/5
f 53/59/5 55/61/5 47/53/5
f 55/61/5 57/63/5 59/65/5
f 59/65/5 61/67/5 63/69/5
f 63/69/5 65/71/5 67/73/5
f 67/73/5 69/75/5 71/80/5
f 11/16/5 15/21/5 39/45/5
f 23/29/5 27/33/5 39/45/5
f 27/33/5 31/37/5 39/45/5
f 43/49/5 47/53/5 71/80/5
f 55/61/5 59/65/5 63/69/5
f 63/69/5 67/73/5 55/61/5
f 67/73/5 71/80/5 55/61/5
f 15/21/5 23/29/5 39/45/5
f 12/82/6 73/18/6 74/15/6
f 14/84/6 75/20/6 73/18/6
f 14/84/6 16/86/6 76/22/6
f 18/85/6 77/24/6 76/22/6
f 18/85/6 20/88/6 78/26/6
f 22/87/6 79/28/6 78/26/6
f 22/87/6 24/89/6 80/30/6
f 24/89/6 26/91/6 81/32/6
f 28/90/6 82/34/6 81/32/6
f 28/90/6 30/93/6 83/36/6
f 32/92/6 84/38/6 83/36/6
f 32/92/6 34/95/6 85/40/6
f 36/94/6 86/42/6 85/40/6
f 38/96/6 87/44/6 86/42/6
f 38/96/6 40/97/6 88/46/6
f 40/97/6 42/99/6 89/48/6
f 44/98/6 90/50/6 89/48/6
f 44/98/6 46/100/6 91/52/6
f 46/100/6 48/102/6 92/54/6
f 50/101/6 93/56/6 92/54/6
f 52/103/6 94/58/6 93/56/6
f 52/103/6 54/105/6 95/60/6
f 56/104/6 96/62/6 95/60/6
f 58/106/6 97/64/6 96/62/6
f 60/107/6 98/66/6 97/64/6
f 62/76/6 99/68/6 98/66/6
f 62/76/6 64/78/6 100/70/6
f 66/108/6 101/72/6 100/70/6
f 68/109/6 102/74/6 101/72/6
f 68/109/6 70/111/6 103/79/6
f 72/110/6 104/81/6 103/79/6
f 72/110/6 10/83/6 74/15/6
f 107/114/6 105/115/6 120/117/6
f 105/115/6 106/146/6 121/119/6
f 106/146/6 136/124/6 122/122/6
f 136/124/6 135/121/6 134/118/6
f 136/124/6 129/137/6 122/122/6
f 134/118/6 133/116/6 136/124/6
f 133/116/6 132/77/6 136/124/6
f 132/77/6 131/141/6 136/124/6
f 131/141/6 130/139/6 136/124/6
f 130/139/6 129/137/6 136/124/6
f 129/137/6 128/136/6 122/122/6
f 128/136/6 127/134/6 122/122/6
f 127/134/6 126/132/6 122/122/6
f 126/132/6 125/130/6 122/122/6
f 125/130/6 124/128/6 122/122/6
f 124/128/6 123/125/6 122/122/6
f 122/122/6 121/119/6 106/146/6
f 121/119/6 120/117/6 105/115/6
f 120/117/6 119/112/6 107/114/6
f 119/112/6 118/142/6 115/113/6
f 118/142/6 117/140/6 115/113/6
f 117/140/6 116/138/6 115/113/6
f 115/113/6 114/135/6 113/133/6
f 113/133/6 112/131/6 111/129/6
f 111/129/6 110/126/6 107/114/6
f 110/126/6 109/123/6 107/114/6
f 109/123/6 108/120/6 107/114/6
f 115/113/6 113/133/6 107/114/6
f 113/133/6 111/129/6 107/114/6
f 36/94/36 118/142/36 119/112/36
f 10/83/39 106/146/39 105/115/39
f 64/78/18 132/77/18 133/116/18
f 38/96/37 119/112/37 120/117/37
f 12/82/24 105/115/24 107/114/24
f 66/108/19 133/116/19 134/118/19
f 40/97/40 120/117/40 121/119/40
f 14/84/25 107/114/25 108/120/25
f 68/109/20 134/118/20 135/121/20
f 42/99/41 121/119/41 122/122/41
f 16/86/26 108/120/26 109/123/26
f 70/111/21 135/121/21 136/124/21
f 44/98/8 122/122/8 123/125/8
f 18/85/27 109/123/27 110/126/27
f 72/110/6 138/143/6 137/127/6
f 46/100/9 123/125/9 124/128/9
f 20/88/28 110/126/28 111/129/28
f 48/102/10 124/128/10 125/130/10
f 22/87/29 111/129/29 112/131/29
f 50/101/11 125/130/11 126/132/11
f 24/89/30 112/131/30 113/133/30
f 52/103/12 126/132/12 127/134/12
f 26/91/31 113/133/31 114/135/31
f 54/105/13 127/134/13 128/136/13
f 28/90/32 114/135/32 115/113/32
f 56/104/14 128/136/14 129/137/14
f 30/93/33 115/113/33 116/138/33
f 58/106/15 129/137/15 130/139/15
f 32/92/34 116/138/34 117/140/34
f 60/107/16 130/139/16 131/141/16
f 34/95/35 117/140/35 118/142/35
f 138/143/42 140/145/42 139/144/42
f 136/124/5 106/146/5 139/144/5
f 10/83/43 137/127/43 139/144/43
f 136/124/44 140/145/44 138/143/44
f 144/147/45 162/175/45 161/148/45
f 152/150/2 148/153/2 147/151/2
f 148/153/3 146/155/3 145/154/3
f 146/155/4 151/160/4 150/156/4
f 147/151/5 145/154/5 150/156/5
f 152/150/46 158/169/46 159/157/46
f 143/158/1 149/152/1 150/156/1
f 142/149/1 141/159/1 150/156/1
f 142/149/1 151/160/1 152/150/1
f 144/147/1 152/150/1 149/152/1
f 155/161/1 156/164/1 153/162/1
f 141/159/5 154/163/5 153/162/5
f 143/158/2 153/162/2 156/164/2
f 142/149/4 155/161/4 154/163/4
f 160/165/53 159/184/53 167/166/53
f 148/153/47 159/157/47 160/168/47
f 151/160/48 157/170/48 158/169/48
f 151/160/49 146/155/49 160/168/49
f 161/171/54 162/192/54 170/172/54
f 142/149/50 161/148/50 163/174/50
f 156/164/51 164/176/51 162/175/51
f 156/164/55 155/161/55 163/174/55
f 167/177/4 166/195/4 165/178/4
f 158/180/56 157/183/56 165/181/56
f 157/183/57 160/165/57 168/167/57
f 159/184/58 158/180/58 166/182/58
f 169/185/4 170/196/4 172/186/4
f 163/188/59 161/171/59 169/173/59
f 164/190/60 163/188/60 171/189/60
f 162/192/61 164/190/61 172/191/61
o Cube.001_Cube.004
v -2.044488 -1.345876 10.675535
v -2.044488 0.893167 10.675535
v -2.044488 -1.345876 9.686110
v -2.044488 0.893167 9.686110
v -1.055063 -1.345876 10.675535
v -1.055063 0.893167 10.675535
v -1.055063 -1.345876 9.686110
v -1.055063 0.893167 9.686110
v -2.044488 0.137433 9.686110
v -1.055063 0.137433 9.686110
v -1.950606 0.231315 9.686110
v -1.950606 0.799285 9.686110
v -1.148945 0.799285 9.686110
v -1.148945 0.231315 9.686110
v -1.950606 0.799285 9.713361
v -1.950606 0.231315 9.713361
v -1.148945 0.231315 9.713361
v -1.148945 0.799285 9.713361
vt 0.625000 0.000000
vt 0.625000 0.250000
vt 0.500000 0.250000
vt 0.609472 0.476279
vt 0.609472 0.273721
vt 0.609472 0.273721
vt 0.500000 0.500000
vt 0.625000 0.750000
vt 0.375000 0.750000
vt 0.375000 1.000000
vt 0.375000 0.500000
vt 0.125000 0.750000
vt 0.125000 0.500000
vt 0.875000 0.500000
vt 0.625000 0.500000
vt 0.375000 0.250000
vt 0.515528 0.273721
vt 0.515528 0.476279
vt 0.515528 0.476279
vt 0.515528 0.273721
vt 0.609472 0.476279
vt 0.375000 0.000000
vt 0.625000 1.000000
vt 0.875000 0.750000
vn -1.0000 0.0000 0.0000
vn 0.0000 -1.0000 0.0000
vn 1.0000 0.0000 0.0000
vn 0.0000 0.0000 1.0000
vn 0.0000 1.0000 0.0000
vn 0.0000 0.0000 -1.0000
s off
f 174/197/62 176/198/62 181/199/62
f 185/200/63 187/201/63 184/202/63
f 182/203/64 178/204/64 177/205/64
f 178/204/65 173/206/65 177/205/65
f 179/207/63 173/208/63 175/209/63
f 176/210/66 178/204/66 180/211/66
f 181/199/67 179/207/67 175/212/67
f 176/198/67 183/213/67 181/199/67
f 176/198/67 185/200/67 184/202/67
f 182/203/67 185/200/67 180/211/67
f 182/203/67 183/213/67 186/214/67
f 187/201/67 189/215/67 188/216/67
f 184/202/64 188/216/64 183/213/64
f 186/214/62 190/217/62 185/200/62
f 183/213/66 189/215/66 186/214/66
f 175/212/62 173/218/62 181/199/62
f 173/218/62 174/197/62 181/199/62
f 185/200/63 190/217/63 187/201/63
f 177/205/64 179/207/64 182/203/64
f 182/203/64 180/211/64 178/204/64
f 178/204/65 174/219/65 173/206/65
f 179/207/63 177/205/63 173/208/63
f 176/210/66 174/220/66 178/204/66
f 181/199/67 182/203/67 179/207/67
f 176/198/67 184/202/67 183/213/67
f 176/198/67 180/211/67 185/200/67
f 182/203/67 186/214/67 185/200/67
f 182/203/67 181/199/67 183/213/67
f 187/201/67 190/217/67 189/215/67
f 184/202/64 187/201/64 188/216/64
f 186/214/62 189/215/62 190/217/62
f 183/213/66 188/216/66 189/215/66
